<svg width="600" height="600" xmlns="http://www.w3.org/2000/svg">
  <defs>
    <filter id="noise" x="0%" y="0%" width="100%" height="100%">
      <feTurbulence type="fractalNoise" baseFrequency="0.65" numOctaves="3" stitchTiles="stitch"/>
      <feColorMatrix type="matrix" values="1 0 0 0 0 0 1 0 0 0 0 0 1 0 0 0 0 0 0.5 0"/>
    </filter>
  </defs>
  <rect width="600" height="600" filter="url(#noise)" opacity="0.4"/>
  
  <!-- Scattered dots -->
  <g fill="rgba(255,255,255,0.3)">
    <circle cx="50" cy="50" r="1" />
    <circle cx="120" cy="30" r="0.8" />
    <circle cx="200" cy="90" r="1.2" />
    <circle cx="280" cy="40" r="0.7" />
    <circle cx="350" cy="120" r="1" />
    <circle cx="450" cy="70" r="1.3" />
    <circle cx="520" cy="150" r="0.9" />
    <circle cx="100" cy="200" r="1.1" />
    <circle cx="170" cy="250" r="0.8" />
    <circle cx="240" cy="180" r="1" />
    <circle cx="320" cy="230" r="1.2" />
    <circle cx="400" cy="190" r="0.7" />
    <circle cx="480" cy="280" r="1" />
    <circle cx="550" cy="220" r="0.9" />
    <circle cx="80" cy="320" r="1" />
    <circle cx="150" cy="350" r="1.3" />
    <circle cx="220" cy="300" r="0.8" />
    <circle cx="300" cy="380" r="1.1" />
    <circle cx="380" cy="330" r="1" />
    <circle cx="460" cy="370" r="0.7" />
    <circle cx="530" cy="340" r="1.2" />
    <circle cx="60" cy="430" r="0.9" />
    <circle cx="130" cy="410" r="1" />
    <circle cx="210" cy="470" r="1.3" />
    <circle cx="290" cy="420" r="0.8" />
    <circle cx="370" cy="460" r="1.1" />
    <circle cx="440" cy="430" r="1" />
    <circle cx="520" cy="490" r="0.7" />
    <circle cx="100" cy="530" r="1.2" />
    <circle cx="180" cy="510" r="0.9" />
    <circle cx="260" cy="550" r="1" />
    <circle cx="330" cy="520" r="1.3" />
    <circle cx="410" cy="560" r="0.8" />
    <circle cx="490" cy="540" r="1.1" />
    <circle cx="560" cy="580" r="1" />
  </g>
</svg> 