<svg width="800" height="400" viewBox="0 0 800 400" fill="none" xmlns="http://www.w3.org/2000/svg">
  <path d="M50,200 Q200,100 400,200 T750,200" stroke="#334155" stroke-width="2"/>
  <path d="M100,150 Q250,50 450,150 T700,150" stroke="#334155" stroke-width="2"/>
  <path d="M150,250 Q300,150 500,250 T650,250" stroke="#334155" stroke-width="2"/>
  
  <!-- Simplified world map outline -->
  <path d="M120,120 C150,110 180,115 200,130 C220,145 240,135 270,140 C300,145 330,160 350,150 C370,140 390,145 410,160 C430,175 450,170 480,165 C510,160 540,165 560,180 C580,195 600,190 630,185 C660,180 690,190 710,180" stroke="#475569" stroke-width="1.5" fill="none"/>
  
  <path d="M100,200 C130,190 160,195 180,210 C200,225 220,215 250,220 C280,225 310,240 330,230 C350,220 370,225 390,240 C410,255 430,250 460,245 C490,240 520,245 540,260 C560,275 580,270 610,265 C640,260 670,270 690,260" stroke="#475569" stroke-width="1.5" fill="none"/>
  
  <path d="M150,230 C180,220 210,225 230,240 C250,255 270,245 300,250 C330,255 360,270 380,260 C400,250 420,255 440,270 C460,285 480,280 510,275 C540,270 570,275 590,290 C610,305 630,300 660,295 C690,290 720,300 740,290" stroke="#475569" stroke-width="1.5" fill="none"/>
  
  <!-- Hotspots -->
  <!-- Asia - Korea -->
  <circle cx="600" cy="150" r="10" fill="#A855F7" opacity="0.7">
    <animate attributeName="opacity" values="0.3;0.7;0.3" dur="3s" repeatCount="indefinite" />
  </circle>
  <circle cx="600" cy="150" r="20" fill="#A855F7" opacity="0.3">
    <animate attributeName="r" values="10;30;10" dur="3s" repeatCount="indefinite" />
    <animate attributeName="opacity" values="0.3;0.1;0.3" dur="3s" repeatCount="indefinite" />
  </circle>
  
  <!-- Europe - Germany -->
  <circle cx="400" cy="130" r="8" fill="#3B82F6" opacity="0.7">
    <animate attributeName="opacity" values="0.3;0.7;0.3" dur="4s" repeatCount="indefinite" />
  </circle>
  <circle cx="400" cy="130" r="16" fill="#3B82F6" opacity="0.3">
    <animate attributeName="r" values="8;24;8" dur="4s" repeatCount="indefinite" />
    <animate attributeName="opacity" values="0.3;0.1;0.3" dur="4s" repeatCount="indefinite" />
  </circle>
  
  <!-- North America - USA -->
  <circle cx="200" cy="160" r="9" fill="#06B6D4" opacity="0.7">
    <animate attributeName="opacity" values="0.3;0.7;0.3" dur="3.5s" repeatCount="indefinite" />
  </circle>
  <circle cx="200" cy="160" r="18" fill="#06B6D4" opacity="0.3">
    <animate attributeName="r" values="9;27;9" dur="3.5s" repeatCount="indefinite" />
    <animate attributeName="opacity" values="0.3;0.1;0.3" dur="3.5s" repeatCount="indefinite" />
  </circle>
  
  <!-- South America - Brazil -->
  <circle cx="270" cy="260" r="7" fill="#10B981" opacity="0.7">
    <animate attributeName="opacity" values="0.3;0.7;0.3" dur="4.5s" repeatCount="indefinite" />
  </circle>
  <circle cx="270" cy="260" r="14" fill="#10B981" opacity="0.3">
    <animate attributeName="r" values="7;21;7" dur="4.5s" repeatCount="indefinite" />
    <animate attributeName="opacity" values="0.3;0.1;0.3" dur="4.5s" repeatCount="indefinite" />
  </circle>
</svg> 