<?xml version="1.0" encoding="UTF-8"?>
<svg xmlns="http://www.w3.org/2000/svg" viewBox="0 0 24 24" fill="none" stroke="currentColor" stroke-width="2" stroke-linecap="round" stroke-linejoin="round">
  <path d="M6 11h4" stroke="#FF7D00"></path>
  <path d="M8 9v4" stroke="#FF7D00"></path>
  <path d="M15 12h.01" stroke="#FF7D00" stroke-width="3"></path>
  <path d="M18 10h.01" stroke="#FF7D00" stroke-width="3"></path>
  <path d="M17.32 5H6.68a4 4 0 0 0-3.978 3.59c-.006.052-.01.101-.01.15v6.5c0 1.933 1.567 3.5 3.5 3.5 1.2 0 2.3-.54 3.053-1.48.236-.296.52-.562.847-.777.5-.33 1.3-.33 1.8 0 .326.215.61.48.847.777A4.373 4.373 0 0 0 15.75 18.5c1.933 0 3.5-1.567 3.5-3.5v-6.5c0-.05-.004-.097-.01-.15A4 4 0 0 0 17.32 5z" stroke="#00A4EA" fill="#00A4EA" fill-opacity="0.1"></path>
  <rect x="9" y="1" width="6" height="4" rx="1" stroke="#00A4EA" fill="#00A4EA" fill-opacity="0.3"></rect>
</svg> 