<?xml version="1.0" encoding="UTF-8"?>
<svg xmlns="http://www.w3.org/2000/svg" width="45" height="45">
  <g fill="none" fill-rule="evenodd" stroke="#000" stroke-width="1.5" stroke-linecap="round" stroke-linejoin="round">
    <g fill="#000" stroke-linecap="butt">
      <path d="M9 36c3.4-1 5.7-2 8.6-4 3 2 6.3 3 9.4 4-2.5 3.2-5.3 6-8.6 9-2.7-3-6-6-9.4-9z"/>
      <path d="M15 26c0 2 8 2 8 0 0-2-2-1-2-1l1-5-1-4h-4l-1 4 1 5s-2-1-2 1z"/>
      <path d="M21 10c0 1.5-.5 3-2 3-1.5 0-2-1.5-2-3s.5-3 2-3c1.5 0 2 1.5 2 3z"/>
    </g>
    <path d="M9 36c3.4-1 5.7-2 8.5-4M17.5 32c3.2 2 6.3 3 9.5 4M30 36c-2.5 3.2-5.3 6-8.5 9M21.5 45c-3-3-6-6-9.5-9M30 36c-3.4-1-5.8-2-8.5-4" stroke="#fff"/>
  </g>
</svg> 